<svg width="322" height="181" xmlns="http://www.w3.org/2000/svg">
 <!-- Created with SVG-edit - http://svg-edit.googlecode.com/ -->
 <g>
  <title>Layer 1</title>
  <g id="svg_7">
   <metadata id="svg_6">image/svg+xml</metadata>
   <g id="svg_1">
    <path fill="#000000" fill-rule="evenodd" stroke="#000000" stroke-width="0.46359593px" id="svg_5" d="m307.07764,74.15149c2.18433,-1.54962 10.927,1.57773 13.9657,4.07939c3.28076,2.43536 -0.76453,6.98325 -1.94824,18.16844c-1.1524,30.31256 -1.08801,17.6235 -0.56445,48.35925c0.42822,9.35526 -4.22345,20.15237 -5.91479,20.32791c-1.12512,-0.86938 -4.51489,-4.32031 -6.29382,-14.7558c-0.22131,-12.07397 -0.16248,-35.15503 -0.11371,-42.89667c-0.20557,-12.07065 -0.58185,-9.61319 -0.49908,-17.77754c0.08398,-3.56493 -1.91907,-5.00742 -3.22357,-7.5956c-1.55536,-2.1082 2.64838,-5.07431 4.59198,-7.90939z"/>
    <path fill="#000000" fill-rule="evenodd" stroke="#000000" stroke-width="0.46359593px" d="m201.68521,74.94392c2.18439,-1.54964 10.92703,1.57771 13.9657,4.07939c3.28079,2.43536 -0.7645,6.98325 -1.94821,18.16844c-1.1524,30.31255 -1.08801,17.62349 -0.56445,48.35924c0.42819,9.35526 -4.22342,20.1524 -5.91479,20.32791c-1.12515,-0.86938 -4.51492,-4.32031 -6.29385,-14.75577c-0.22128,-12.07401 -0.16245,-35.15506 -0.11365,-42.8967c-0.2056,-12.07063 -0.58191,-9.61319 -0.49915,-17.77754c0.08401,-3.56493 -1.91901,-5.0074 -3.22354,-7.59558c-1.55536,-2.10822 2.64841,-5.07433 4.59195,-7.90939z" id="svg_4"/>
    <path fill="#000000" fill-rule="evenodd" stroke-width="0.2" stroke-miterlimit="4" id="svg_3" d="m205.3692,78.94704c14.95972,-1.34003 59.12552,-1.16856 86.06616,-6.46674c6.58267,-1.53239 15.45111,0.24718 20.6319,1.51888c4.64484,1.77242 8.92004,11.62033 1.25189,11.19432c-31.02289,-0.92833 -93.91614,2.80957 -99.70871,3.15292c-7.75732,-1.59358 -10.53668,-8.80167 -8.24124,-9.39938z"/>
    <path fill="#000000" fill-rule="evenodd" stroke-width="0.2" stroke-miterlimit="4" id="svg_2" d="m203.66345,146.23172c14.83176,0.30157 19.53717,0.82852 34.70752,-0.07205c27.77319,-1.17252 45.61066,-1.78717 68.46326,-4.21545c7.99408,-0.11475 9.65314,3.11288 11.146,9.42831c0.00653,2.29214 -1.03021,5.84012 -4.84216,5.29953c-8.52863,-0.8103 -9.00171,-1.11761 -16.98621,-1.35022c-36.15759,-0.05463 -39.1286,-0.87845 -47.03397,0.5365c-9.81174,0.51996 -29.35251,2.22321 -35.82404,2.35251c-4.52203,0.17172 -6.15967,-0.57892 -9.20889,-1.64975c-3.95245,-2.29523 -3.83929,-3.36041 -3.77756,-6.57367c0.44858,-2.52106 0.77133,-3.18991 3.35605,-3.75571z"/>
   </g>
  </g>
  <g id="svg_15">
   <metadata id="svg_14">image/svg+xml</metadata>
   <g id="svg_8">
    <path fill="#000000" fill-rule="evenodd" stroke-width="0.2" stroke-miterlimit="4" id="svg_13" d="m5.12097,96.54727c14.95972,-1.34003 23.14313,-1.51172 36.70082,-2.85178c24.83754,-2.02673 68.00478,-3.70908 94.94542,-9.00725c6.58267,-1.53238 13.86627,-2.13008 19.04703,-0.85838c4.64481,1.7724 10.22421,4.94687 14.16794,10.45804c1.99335,2.83112 -0.92017,6.12958 -6.40436,5.68922c-7.66827,-0.42601 -11.59802,-1.31935 -19.26624,-1.74538c-31.02289,-0.92831 -61.68118,-1.50009 -102.28455,4.34811c-5.32529,0.81073 -14.15561,3.02344 -19.94817,3.36681c-3.00279,0.78366 -5.53807,-0.30203 -8.30717,-1.15408c-3.62125,-1.91707 -6.54123,-2.89943 -10.16248,-4.81651c-1.67708,-0.83133 -0.78371,-2.8311 1.51175,-3.4288z"/>
    <path fill="#000000" fill-rule="evenodd" stroke="#000000" stroke-width="0.44477424px" d="m73.32796,89.15915c15.08882,16.49121 35.91316,41.30957 53.5731,55.46341c16.69885,11.56122 31.29404,16.5777 49.39542,25.33405c3.16855,1.98245 -0.67514,2.7962 -2.41516,3.37619c-6.10291,2.03003 -16.41302,3.59256 -29.52811,4.45389c-5.76978,-0.33759 -9.66968,-1.14264 -11.69974,-2.88266c-17.33493,-16.58893 -48.24496,-61.06012 -58.20796,-74.7196c-5.22078,-6.74661 -4.02739,-12.77051 -1.11755,-11.02527z" id="svg_12"/>
    <path fill="#000000" fill-rule="evenodd" stroke-width="0.2" stroke-miterlimit="4" id="svg_11" d="m36.48917,33.00404c14.95972,-1.34004 23.14314,-1.51172 36.70082,-2.85176c15.07533,-2.02675 26.87535,-2.04901 51.4763,-5.92209c6.58267,-1.53238 13.86624,-2.13008 19.04703,-0.85838c4.64484,1.77242 10.22418,4.94687 14.16791,10.45804c1.99335,2.8311 -0.92014,6.12955 -6.40436,5.68921c-7.66824,-0.42601 -11.59802,-1.31935 -19.2662,-1.74538c-31.02286,-0.92831 -36.97046,0.00491 -58.81543,1.97549c-5.32529,0.81073 -14.15559,2.31088 -19.94815,2.65424c-3.00281,0.78368 -5.53809,-0.30202 -8.30719,-1.15405c-3.62123,-1.91708 -6.54123,-2.89944 -10.16246,-4.81653c-1.67709,-0.83134 -0.78371,-2.83109 1.51173,-3.42879z"/>
    <path fill="#000000" fill-rule="evenodd" stroke-width="1px" id="svg_10" d="m85.67477,30.04675c7.25784,3.06297 14.94376,6.52292 19.78854,11.32932c1.41855,1.28262 3.00708,3.3851 -0.8537,6.65002c-4.43997,5.48167 -6.72925,9.64296 -8.17172,14.45944c-11.58783,35.53534 -43.46457,89.0567 -63.01768,102.03195c-8.09482,6.12033 -19.71075,14.55457 -26.80823,16.46585c-3.7802,0.97919 -4.22354,-0.82156 1.90157,-5.49042c10.78616,-8.39404 13.927,-12.26303 21.77032,-20.46243c26.57343,-29.22849 40.92728,-66.61032 50.2269,-90.10364c4.896,-15.90869 3.86856,-24.57117 2.10925,-30.72739c-2.10028,-3.74536 0.4306,-5.1866 3.05475,-4.15271z"/>
    <path fill="#000000" fill-rule="evenodd" stroke="#000000" stroke-width="0.44477409px" d="m59.93924,6.34631c4.47672,2.70062 -1.87219,8.46194 -5.33328,14.67447c-2.00906,2.48499 -7.04141,18.79501 -16.87296,33.9922c-7.62219,12.03282 -24.34064,25.6965 -34.60089,29.12486c-3.18797,0.31143 -3.71341,0.41641 -2.5966,-1.89255c8.57028,-8.68074 22.77074,-25.63792 25.38512,-30.3833c7.5222,-11.84868 16.08081,-33.50134 15.00206,-36.90852c-0.22569,-4.42018 -1.35797,-4.66502 -1.98872,-7.00673c0.02785,-2.77223 3.65631,-5.02879 5.27975,-7.30406c3.23453,-1.98653 8.58344,0.82831 15.72552,5.70363z" id="svg_9"/>
   </g>
  </g>
 </g>
</svg>
